<svg width="462" height="389" viewBox="0 0 462 389" fill="none" xmlns="http://www.w3.org/2000/svg">
<path d="M201.5 258.5L164 218L400.115 22.1153L379 1H462V84L438.507 60.5067L201.5 258.5Z" fill="#70DA44"/>
<path d="M329.5 290.5V151.5L276 195V290.5C276 314.5 257.5 334 232.5 334C207.5 334 187.5 311.5 187.5 290.5C187.5 273.7 196.833 262.167 201.5 258.5L164 218C137.2 242.4 133.5 263.5 133.5 290.5C133.5 332 167 388.5 232.5 388.5C282 388.5 329.5 349 329.5 290.5Z" fill="#70DA44"/>
<path d="M192 176L136 223V88C136 75 120.6 55.5 97 55.5C67.5 55.5 52 75 52 88C52 95.2443 51.6667 181 52 223C52 232 43 241 27.5 241C9 241 1.99105e-05 232 1.99105e-05 223V88C6.09309e-05 50 20.0001 0 97 0C127.364 0 148.553 13.6838 163.082 30.2594C178.356 13.2266 200.902 0 233 0C296.2 0 325 49 325 64L276 104.5V88C276 75 260.2 55.5 233 55.5C205.8 55.5 192 75 192 88V176Z" fill="#70DA44"/>
</svg>
